<svg id="svg" version="1.1" xmlns="http://www.w3.org/2000/svg" xmlns:xlink="http://www.w3.org/1999/xlink" width="400" height="259.7883597883598" viewBox="0, 0, 400,259.7883597883598"><g id="svgg"><path id="path0" d="M123.114 103.873 C 123.057 103.930,122.585 103.993,122.064 104.012 C 121.544 104.032,121.118 104.142,121.118 104.257 C 121.118 104.373,120.944 104.400,120.731 104.319 C 120.215 104.121,117.739 104.726,117.739 105.051 C 117.739 105.191,117.593 105.255,117.414 105.191 C 117.004 105.046,114.561 106.246,114.279 106.731 C 114.163 106.930,113.971 107.033,113.851 106.960 C 113.732 106.886,113.565 107.008,113.479 107.230 C 113.394 107.453,113.206 107.562,113.062 107.474 C 112.918 107.385,112.801 107.436,112.801 107.587 C 112.801 107.738,112.685 107.862,112.544 107.862 C 112.097 107.862,111.261 108.723,111.426 109.013 C 111.513 109.166,111.497 109.214,111.391 109.118 C 110.934 108.708,108.651 111.943,109.088 112.381 C 109.176 112.469,109.123 112.541,108.969 112.541 C 108.580 112.541,107.771 115.238,107.922 116.031 C 107.991 116.390,107.961 116.630,107.855 116.565 C 107.750 116.500,107.701 116.825,107.746 117.287 C 107.792 117.750,107.844 118.129,107.862 118.129 C 107.881 118.129,107.928 118.772,107.967 119.558 C 108.038 120.976,108.689 122.677,109.160 122.677 C 109.295 122.677,109.338 122.854,109.255 123.070 C 109.040 123.629,111.661 126.530,113.501 127.768 C 114.331 128.328,115.049 128.873,115.096 128.980 C 115.144 129.087,115.378 129.177,115.616 129.181 C 115.854 129.184,116.342 129.415,116.699 129.695 C 117.057 129.974,117.438 130.205,117.547 130.209 C 117.786 130.216,119.931 131.151,120.923 131.681 C 121.316 131.891,121.637 132.004,121.637 131.932 C 121.637 131.729,123.307 132.349,123.486 132.619 C 123.574 132.751,124.098 132.901,124.651 132.952 C 125.204 133.003,125.694 133.156,125.739 133.292 C 125.784 133.427,126.049 133.478,126.328 133.405 C 126.619 133.329,126.836 133.403,126.836 133.578 C 126.836 133.746,126.939 133.820,127.066 133.741 C 127.193 133.663,127.434 133.765,127.603 133.968 C 127.771 134.171,128.135 134.293,128.412 134.240 C 128.689 134.187,128.915 134.227,128.915 134.330 C 128.915 134.432,129.431 134.746,130.061 135.027 C 130.692 135.308,131.158 135.618,131.097 135.716 C 131.036 135.815,131.202 135.963,131.464 136.047 C 132.811 136.474,133.853 138.494,133.853 140.675 C 133.853 141.925,133.232 143.730,132.801 143.730 C 132.684 143.730,132.519 143.949,132.434 144.217 C 132.349 144.485,131.727 144.982,131.052 145.322 C 130.377 145.661,129.753 146.037,129.666 146.156 C 129.578 146.275,129.432 146.363,129.341 146.351 C 128.334 146.216,125.527 146.419,126.056 146.589 C 126.661 146.782,126.666 146.799,126.136 146.823 C 125.823 146.837,125.488 146.720,125.391 146.564 C 125.294 146.407,124.878 146.328,124.466 146.389 C 124.054 146.449,123.717 146.427,123.717 146.339 C 123.717 146.252,123.512 146.165,123.262 146.147 C 121.237 146.000,118.519 144.697,118.519 143.873 C 118.519 143.720,118.276 143.443,117.980 143.258 C 117.248 142.802,116.628 141.266,116.560 139.746 C 116.480 137.969,116.553 137.992,111.222 138.071 L 106.433 138.142 106.353 139.246 C 106.309 139.854,106.367 140.351,106.483 140.352 C 106.598 140.352,106.694 140.942,106.695 141.662 C 106.696 142.468,106.830 143.054,107.042 143.185 C 107.232 143.302,107.377 143.473,107.365 143.564 C 107.285 144.159,107.414 144.543,107.970 145.362 C 108.315 145.870,108.540 146.344,108.470 146.414 C 108.400 146.484,108.556 146.612,108.817 146.699 C 109.078 146.785,109.477 147.235,109.704 147.697 C 109.930 148.160,110.368 148.665,110.677 148.821 C 110.985 148.977,111.161 149.182,111.066 149.276 C 110.972 149.370,111.013 149.448,111.158 149.448 C 111.303 149.448,111.691 149.682,112.021 149.968 C 112.350 150.253,112.778 150.487,112.970 150.487 C 113.163 150.487,113.554 150.721,113.840 151.007 C 114.126 151.293,114.535 151.527,114.750 151.527 C 114.964 151.527,115.140 151.651,115.140 151.802 C 115.140 151.954,115.247 152.011,115.377 151.931 C 115.508 151.850,115.656 151.907,115.706 152.057 C 115.756 152.207,116.059 152.349,116.378 152.374 C 116.698 152.398,116.959 152.522,116.959 152.650 C 116.959 152.778,117.131 152.816,117.341 152.736 C 117.550 152.655,117.792 152.703,117.878 152.842 C 117.964 152.981,118.135 153.033,118.259 152.956 C 118.382 152.880,118.550 152.927,118.632 153.060 C 118.780 153.299,120.381 153.654,121.646 153.727 C 122.008 153.748,122.417 153.831,122.555 153.912 C 123.059 154.204,129.955 154.161,129.955 153.865 C 129.955 153.677,130.100 153.662,130.381 153.819 C 130.855 154.084,131.774 153.929,131.774 153.584 C 131.774 153.462,131.945 153.428,132.154 153.509 C 132.568 153.667,134.815 153.000,136.062 152.349 C 136.491 152.125,136.988 151.970,137.167 152.005 C 137.346 152.041,137.492 151.962,137.492 151.830 C 137.492 151.698,137.843 151.445,138.272 151.267 C 138.700 151.089,139.051 150.776,139.051 150.570 C 139.051 150.365,139.168 150.269,139.311 150.357 C 139.454 150.446,139.571 150.394,139.571 150.243 C 139.571 150.091,139.708 149.997,139.875 150.032 C 140.042 150.068,140.315 149.835,140.483 149.514 C 140.650 149.193,140.861 149.005,140.952 149.095 C 141.042 149.186,141.227 148.967,141.363 148.610 C 141.499 148.252,141.821 147.878,142.078 147.780 C 142.450 147.637,142.474 147.556,142.193 147.382 C 141.918 147.213,141.968 147.096,142.420 146.854 C 142.808 146.646,142.956 146.380,142.869 146.047 C 142.797 145.773,142.831 145.549,142.943 145.549 C 143.215 145.549,143.725 144.252,143.710 143.600 C 143.703 143.314,143.763 142.561,143.843 141.926 C 144.482 136.868,143.137 134.000,137.882 129.215 C 137.596 128.954,136.748 128.467,135.997 128.132 C 135.247 127.797,134.633 127.414,134.633 127.281 C 134.633 127.149,134.465 127.104,134.260 127.183 C 134.055 127.262,133.840 127.187,133.783 127.016 C 133.726 126.845,133.456 126.701,133.182 126.695 C 132.908 126.689,132.333 126.498,131.904 126.271 C 131.475 126.044,130.744 125.777,130.279 125.677 C 129.815 125.577,129.434 125.416,129.434 125.320 C 129.434 125.225,129.087 125.122,128.662 125.092 C 128.238 125.063,127.596 124.845,127.235 124.609 C 126.875 124.373,126.407 124.246,126.195 124.327 C 125.984 124.408,125.616 124.279,125.377 124.040 C 125.138 123.802,124.775 123.582,124.570 123.552 C 124.364 123.522,123.825 123.322,123.372 123.107 C 122.918 122.893,122.372 122.679,122.157 122.632 C 121.943 122.585,121.615 122.342,121.428 122.092 C 121.241 121.842,120.861 121.637,120.583 121.637 C 120.305 121.637,120.078 121.514,120.078 121.362 C 120.078 121.211,119.932 121.171,119.753 121.274 C 119.574 121.377,119.514 121.366,119.618 121.251 C 119.723 121.135,119.401 120.590,118.904 120.039 C 117.773 118.787,117.590 117.010,118.408 115.221 C 118.852 114.251,121.049 112.285,121.692 112.282 C 121.937 112.281,122.281 112.126,122.458 111.937 C 122.635 111.747,123.049 111.644,123.378 111.707 C 123.707 111.770,123.977 111.720,123.976 111.596 C 123.976 111.302,127.037 111.390,127.875 111.709 C 128.233 111.846,128.788 111.911,129.110 111.854 C 129.431 111.797,129.695 111.877,129.695 112.031 C 129.695 112.185,129.812 112.239,129.955 112.151 C 130.097 112.062,130.214 112.114,130.214 112.265 C 130.214 112.417,130.323 112.511,130.456 112.476 C 130.793 112.385,133.114 114.865,132.946 115.135 C 132.871 115.256,132.926 115.394,133.068 115.442 C 133.210 115.490,133.464 116.231,133.633 117.089 C 134.033 119.120,133.774 119.030,139.237 119.034 L 143.971 119.038 143.947 117.869 C 143.934 117.225,143.838 116.699,143.732 116.699 C 143.627 116.699,143.573 116.407,143.612 116.051 C 143.652 115.694,143.575 115.335,143.443 115.253 C 143.310 115.171,143.267 114.998,143.346 114.869 C 143.426 114.741,143.315 114.296,143.101 113.881 C 142.886 113.466,142.784 113.053,142.874 112.963 C 142.963 112.874,142.893 112.801,142.718 112.801 C 142.543 112.801,142.472 112.684,142.560 112.541 C 142.648 112.398,142.618 112.281,142.492 112.281 C 142.366 112.281,142.008 111.771,141.696 111.147 C 141.385 110.524,140.838 109.795,140.481 109.526 C 140.123 109.258,139.831 108.871,139.831 108.667 C 139.831 108.463,139.766 108.361,139.686 108.440 C 139.606 108.520,139.156 108.189,138.685 107.704 C 138.214 107.219,137.718 106.823,137.581 106.823 C 137.445 106.823,136.811 106.491,136.172 106.086 C 135.145 105.434,133.990 104.971,133.203 104.896 C 133.060 104.882,132.678 104.720,132.353 104.535 C 132.029 104.351,131.657 104.265,131.527 104.346 C 131.396 104.426,131.211 104.365,131.115 104.209 C 131.009 104.037,130.439 103.975,129.669 104.052 C 128.969 104.121,128.328 104.065,128.243 103.928 C 128.100 103.696,123.343 103.645,123.114 103.873 M272.094 103.821 C 272.022 103.893,271.678 104.004,271.329 104.068 C 270.981 104.132,270.695 104.199,270.695 104.216 C 270.695 104.233,270.169 104.288,269.526 104.338 C 268.170 104.443,265.367 105.440,265.367 105.817 C 265.367 105.958,265.267 106.012,265.145 105.936 C 264.905 105.788,262.434 107.258,262.292 107.633 C 262.244 107.759,262.100 107.862,261.971 107.862 C 261.637 107.862,259.766 109.730,259.844 109.987 C 259.880 110.105,259.789 110.201,259.643 110.201 C 259.496 110.201,259.265 110.494,259.129 110.851 C 258.993 111.209,258.750 111.501,258.588 111.501 C 258.426 111.501,258.364 111.682,258.449 111.904 C 258.549 112.166,258.499 112.243,258.306 112.124 C 258.108 112.001,258.052 112.109,258.139 112.443 C 258.212 112.719,258.103 113.103,257.898 113.294 C 257.693 113.486,257.583 113.862,257.653 114.131 C 257.724 114.400,257.676 114.620,257.548 114.620 C 257.420 114.620,257.330 114.883,257.348 115.205 C 257.366 115.526,257.286 116.013,257.171 116.287 C 257.048 116.579,257.061 116.723,257.201 116.637 C 257.337 116.553,257.464 117.400,257.496 118.609 C 257.577 121.633,257.577 121.637,257.846 121.637 C 257.980 121.637,258.090 121.937,258.090 122.303 C 258.090 122.668,258.203 122.897,258.342 122.812 C 258.481 122.726,258.669 122.953,258.760 123.316 C 258.851 123.679,259.030 123.977,259.157 123.977 C 259.285 123.977,259.389 124.149,259.389 124.360 C 259.389 124.874,261.689 127.151,262.008 126.953 C 262.147 126.867,262.229 126.926,262.190 127.083 C 262.150 127.240,262.466 127.570,262.890 127.817 C 263.315 128.063,263.820 128.411,264.013 128.590 C 264.207 128.769,264.514 128.915,264.696 128.915 C 264.878 128.915,265.239 129.150,265.499 129.436 C 265.758 129.723,266.020 129.908,266.081 129.847 C 266.142 129.786,266.971 130.087,267.924 130.516 C 269.987 131.444,273.518 132.716,275.504 133.246 C 276.290 133.455,277.079 133.817,277.258 134.050 C 277.437 134.282,277.583 134.377,277.583 134.261 C 277.583 134.145,277.776 134.210,278.013 134.406 C 278.249 134.602,278.512 134.749,278.597 134.733 C 278.865 134.682,280.043 135.260,280.237 135.537 C 280.339 135.683,280.544 135.817,280.692 135.835 C 280.840 135.853,281.079 135.882,281.222 135.900 C 281.365 135.918,281.481 136.049,281.481 136.192 C 281.481 136.335,281.715 136.715,282.001 137.037 C 282.287 137.359,282.667 137.797,282.846 138.012 C 283.221 138.461,283.347 142.384,283.001 142.807 C 281.562 144.562,280.865 145.260,280.673 145.141 C 280.546 145.063,280.442 145.115,280.442 145.256 C 280.442 145.462,279.455 145.950,279.212 145.864 C 279.179 145.852,278.790 145.946,278.349 146.073 C 277.388 146.348,273.302 146.429,272.385 146.191 C 272.027 146.098,271.550 145.997,271.324 145.967 C 271.098 145.937,270.477 145.655,269.944 145.341 C 269.412 145.026,268.885 144.769,268.773 144.769 C 268.427 144.769,266.998 143.064,266.792 142.405 C 266.684 142.062,266.483 141.707,266.344 141.618 C 266.205 141.528,266.056 140.804,266.013 140.007 C 265.900 137.916,266.147 138.012,260.865 138.012 C 256.208 138.012,256.130 138.021,255.877 138.596 C 255.630 139.160,255.925 142.126,256.258 142.430 C 256.336 142.502,256.430 142.794,256.467 143.080 C 256.576 143.925,258.451 147.364,258.804 147.366 C 258.983 147.367,259.129 147.522,259.129 147.710 C 259.129 147.897,259.480 148.387,259.909 148.798 C 260.338 149.209,260.689 149.470,260.689 149.379 C 260.689 149.287,260.998 149.499,261.376 149.850 C 261.755 150.201,262.217 150.487,262.403 150.487 C 262.590 150.487,262.861 150.692,263.007 150.942 C 263.153 151.192,263.276 151.316,263.280 151.216 C 263.284 151.117,263.994 151.435,264.857 151.923 C 265.721 152.411,266.342 152.667,266.237 152.493 C 266.090 152.249,266.137 152.250,266.442 152.496 C 266.660 152.672,267.121 152.868,267.467 152.932 C 267.813 152.996,268.155 153.074,268.226 153.107 C 268.298 153.139,268.473 153.188,268.616 153.216 C 268.759 153.244,269.081 153.356,269.331 153.464 C 269.581 153.573,269.967 153.592,270.189 153.507 C 270.420 153.418,270.525 153.462,270.434 153.609 C 270.346 153.751,270.545 153.875,270.875 153.886 C 271.205 153.897,271.709 153.955,271.995 154.014 C 272.497 154.119,277.964 154.198,278.493 154.109 C 278.635 154.084,278.859 154.085,278.989 154.109 C 279.118 154.133,279.332 154.001,279.463 153.815 C 279.652 153.547,279.729 153.544,279.834 153.803 C 279.907 153.982,280.103 154.044,280.269 153.940 C 280.610 153.727,280.978 153.643,282.193 153.502 C 282.656 153.448,283.501 153.173,284.071 152.891 C 284.640 152.609,285.031 152.509,284.939 152.668 C 284.846 152.826,285.005 152.752,285.291 152.502 C 285.577 152.251,285.948 152.047,286.115 152.047 C 286.283 152.047,286.420 151.930,286.420 151.787 C 286.420 151.644,286.507 151.541,286.615 151.558 C 286.722 151.575,286.897 151.560,287.005 151.525 C 287.112 151.490,287.346 151.442,287.524 151.418 C 287.703 151.393,287.817 151.224,287.778 151.041 C 287.739 150.858,287.809 150.772,287.933 150.849 C 288.058 150.926,288.412 150.755,288.720 150.468 C 289.027 150.182,289.279 150.015,289.279 150.098 C 289.279 150.404,290.529 149.020,291.330 147.828 C 292.210 146.518,293.274 143.577,293.066 143.033 C 292.997 142.854,293.052 142.638,293.189 142.553 C 293.462 142.384,293.537 138.458,293.272 138.193 C 293.181 138.102,293.068 137.595,293.021 137.066 C 292.973 136.537,292.799 136.020,292.633 135.917 C 292.467 135.815,292.400 135.618,292.485 135.481 C 292.570 135.344,292.432 135.009,292.179 134.737 C 291.926 134.465,291.682 134.126,291.637 133.983 C 291.314 132.953,291.063 132.545,290.839 132.683 C 290.695 132.772,290.578 132.672,290.578 132.461 C 290.578 132.250,290.257 131.781,289.864 131.417 C 288.046 129.737,287.702 129.464,287.208 129.307 C 286.917 129.215,286.680 129.031,286.680 128.897 C 286.680 128.764,286.504 128.655,286.290 128.655 C 286.075 128.655,285.900 128.557,285.900 128.437 C 285.900 128.207,284.739 127.580,284.085 127.456 C 283.873 127.416,283.659 127.260,283.608 127.108 C 283.558 126.956,283.409 126.898,283.279 126.979 C 283.148 127.060,283.041 127.002,283.041 126.851 C 283.041 126.700,282.740 126.576,282.373 126.576 C 282.005 126.576,281.534 126.405,281.325 126.197 C 281.117 125.989,280.775 125.884,280.564 125.965 C 280.354 126.045,280.182 126.008,280.182 125.881 C 280.182 125.680,278.186 124.935,277.453 124.862 C 277.310 124.848,277.018 124.761,276.803 124.669 C 276.589 124.578,276.121 124.451,275.763 124.389 C 275.406 124.326,275.055 124.253,274.984 124.225 C 274.912 124.198,274.757 124.192,274.640 124.212 C 274.522 124.233,274.494 124.138,274.578 124.002 C 274.774 123.686,273.788 123.362,273.386 123.610 C 273.198 123.726,273.154 123.684,273.270 123.497 C 273.372 123.332,273.325 123.197,273.165 123.197 C 272.647 123.197,270.565 122.151,270.565 121.891 C 270.565 121.751,270.400 121.637,270.197 121.637 C 268.708 121.637,266.895 118.044,267.393 116.078 C 267.884 114.138,270.127 112.287,272.489 111.873 C 272.932 111.796,273.386 111.641,273.499 111.529 C 273.611 111.418,274.217 111.404,274.844 111.500 C 275.472 111.595,276.170 111.570,276.394 111.444 C 276.638 111.308,276.803 111.314,276.803 111.459 C 276.803 111.683,279.000 112.175,279.487 112.059 C 279.604 112.031,279.627 112.128,279.536 112.274 C 279.446 112.421,279.487 112.541,279.628 112.541 C 279.769 112.541,280.039 112.688,280.228 112.869 C 280.417 113.049,280.891 113.401,281.280 113.650 C 281.997 114.109,283.233 116.526,283.085 117.180 C 283.042 117.373,283.110 117.467,283.236 117.389 C 283.363 117.310,283.417 117.586,283.356 118.001 C 283.207 119.018,283.513 119.073,288.889 118.983 L 293.307 118.908 293.329 118.129 C 293.341 117.700,293.243 117.208,293.112 117.035 C 292.980 116.863,292.956 116.587,293.058 116.423 C 293.247 116.116,292.738 114.166,292.352 113.723 C 292.234 113.587,292.138 113.266,292.138 113.008 C 292.138 112.751,292.014 112.541,291.863 112.541 C 291.711 112.541,291.649 112.441,291.724 112.319 C 291.865 112.091,290.799 110.498,290.297 110.188 C 290.142 110.092,290.024 109.939,290.036 109.847 C 290.103 109.348,290.034 109.146,289.838 109.268 C 289.716 109.343,289.469 109.126,289.287 108.787 C 289.105 108.448,288.562 107.958,288.078 107.697 C 287.595 107.437,287.199 107.134,287.199 107.023 C 287.199 106.913,287.017 106.823,286.794 106.823 C 286.571 106.823,286.449 106.725,286.523 106.607 C 286.649 106.401,285.066 105.642,284.738 105.750 C 284.652 105.778,284.393 105.613,284.162 105.382 C 283.932 105.152,283.552 105.013,283.319 105.074 C 283.086 105.135,282.748 105.027,282.568 104.834 C 282.388 104.641,281.918 104.483,281.523 104.483 C 281.129 104.483,280.680 104.357,280.525 104.203 C 280.244 103.922,272.351 103.565,272.094 103.821 M165.167 104.682 C 164.857 104.906,164.215 106.226,164.089 106.901 C 164.041 107.159,163.843 107.686,163.649 108.071 C 163.455 108.457,163.219 109.094,163.124 109.487 C 163.030 109.880,162.831 110.201,162.683 110.201 C 162.534 110.201,162.485 110.318,162.573 110.461 C 162.661 110.604,162.629 110.721,162.502 110.721 C 162.374 110.721,162.258 110.867,162.243 111.046 C 162.156 112.097,161.978 112.811,161.730 113.110 C 161.575 113.297,161.442 113.567,161.435 113.710 C 161.404 114.348,160.749 116.179,160.552 116.179 C 160.432 116.179,160.400 116.287,160.481 116.418 C 160.562 116.550,160.481 116.816,160.301 117.009 C 159.986 117.348,159.909 117.555,159.698 118.616 C 159.645 118.884,159.425 119.373,159.209 119.702 C 158.993 120.032,158.740 120.777,158.647 121.359 C 158.554 121.941,158.357 122.417,158.208 122.417 C 158.060 122.417,158.011 122.490,158.101 122.580 C 158.191 122.670,158.070 123.108,157.833 123.555 C 157.596 124.001,157.432 124.571,157.470 124.821 C 157.507 125.071,157.426 125.276,157.289 125.276 C 157.080 125.276,156.814 125.916,156.724 126.634 C 156.711 126.738,156.537 127.139,156.336 127.525 C 156.136 127.912,156.031 128.324,156.104 128.441 C 156.177 128.559,156.100 128.655,155.933 128.655 C 155.766 128.655,155.697 128.830,155.780 129.045 C 155.862 129.259,155.803 129.435,155.650 129.435 C 155.496 129.435,155.437 129.610,155.520 129.825 C 155.602 130.039,155.567 130.214,155.443 130.214 C 155.167 130.214,154.603 131.754,154.776 132.034 C 154.844 132.145,154.733 132.374,154.529 132.543 C 154.324 132.713,154.216 133.007,154.289 133.196 C 154.362 133.386,154.295 133.619,154.140 133.715 C 153.985 133.811,153.925 133.998,154.007 134.131 C 154.089 134.264,154.020 134.373,153.854 134.373 C 153.687 134.373,153.618 134.548,153.700 134.763 C 153.783 134.977,153.746 135.153,153.619 135.153 C 153.492 135.153,153.312 135.499,153.219 135.921 C 153.126 136.344,152.824 137.157,152.548 137.728 C 152.273 138.299,152.047 138.923,152.047 139.114 C 152.047 139.305,151.809 139.925,151.517 140.491 C 151.226 141.057,151.040 141.725,151.103 141.976 C 151.167 142.226,151.133 142.378,151.028 142.313 C 150.924 142.249,150.529 143.096,150.152 144.197 C 148.997 147.568,147.790 150.613,147.572 150.704 C 147.458 150.752,147.431 150.899,147.512 151.029 C 147.593 151.160,147.542 151.267,147.400 151.267 C 147.257 151.267,147.150 151.472,147.161 151.722 C 147.172 151.972,147.093 152.501,146.985 152.897 L 146.790 153.617 152.201 153.547 L 157.612 153.476 157.816 152.493 C 157.928 151.952,158.206 151.150,158.434 150.710 C 158.667 150.260,158.716 149.991,158.547 150.096 C 158.185 150.319,158.797 149.159,159.194 148.867 C 159.337 148.762,159.352 148.674,159.227 148.672 C 159.103 148.670,159.138 148.503,159.305 148.301 C 159.526 148.035,159.530 147.886,159.321 147.756 C 159.128 147.637,159.189 147.452,159.504 147.194 C 159.762 146.983,159.799 146.900,159.584 147.009 C 159.249 147.181,159.244 147.147,159.551 146.769 C 159.747 146.527,159.821 146.329,159.714 146.329 C 159.608 146.329,159.649 146.173,159.807 145.983 C 159.965 145.794,160.131 145.396,160.176 145.099 C 160.221 144.803,160.428 144.351,160.636 144.095 C 160.968 143.686,160.967 143.658,160.624 143.860 C 160.288 144.058,160.283 144.029,160.591 143.650 C 160.913 143.252,161.795 143.210,169.744 143.210 L 178.541 143.210 179.230 145.419 C 179.608 146.634,179.996 147.628,180.092 147.628 C 180.187 147.628,180.288 147.833,180.315 148.083 C 180.463 149.428,180.721 150.509,180.925 150.635 C 181.053 150.714,181.157 151.012,181.157 151.298 C 181.157 151.584,181.272 151.746,181.414 151.659 C 181.563 151.566,181.603 151.676,181.509 151.921 C 181.420 152.152,181.500 152.626,181.686 152.974 L 182.024 153.606 187.415 153.606 L 192.805 153.606 192.309 152.579 C 192.036 152.014,191.813 151.368,191.813 151.142 C 191.813 150.917,191.468 150.049,191.047 149.214 C 190.625 148.380,190.241 147.402,190.193 147.041 C 190.144 146.681,189.934 146.175,189.724 145.918 C 189.507 145.650,189.481 145.531,189.664 145.641 C 189.892 145.779,189.880 145.627,189.619 145.106 C 188.987 143.845,188.302 142.059,188.369 141.851 C 188.405 141.741,188.332 141.650,188.207 141.650 C 188.082 141.650,187.979 141.354,187.979 140.992 C 187.979 140.630,187.760 140.084,187.492 139.778 C 187.224 139.472,187.149 139.307,187.326 139.410 C 187.544 139.537,187.598 139.467,187.494 139.195 C 187.408 138.973,187.234 138.791,187.107 138.791 C 186.979 138.791,186.897 138.704,186.924 138.596 C 187.031 138.174,186.560 136.716,186.356 136.841 C 186.238 136.914,186.174 136.769,186.214 136.518 C 186.254 136.268,186.160 135.828,186.005 135.543 C 185.850 135.257,185.715 134.964,185.705 134.893 C 185.695 134.821,185.560 134.529,185.405 134.243 C 185.250 133.957,185.156 133.519,185.196 133.268 C 185.236 133.018,185.163 132.814,185.032 132.814 C 184.902 132.814,184.814 132.726,184.837 132.619 C 184.860 132.511,184.743 132.094,184.577 131.692 C 184.411 131.290,184.276 130.843,184.276 130.699 C 184.276 130.555,184.105 130.267,183.897 130.058 C 183.688 129.850,183.582 129.512,183.661 129.306 C 183.740 129.101,183.559 128.589,183.260 128.169 C 182.961 127.749,182.716 127.222,182.716 126.998 C 182.716 126.775,182.470 126.119,182.169 125.542 C 181.868 124.965,181.685 124.328,181.763 124.126 C 181.840 123.925,181.730 123.693,181.518 123.612 C 181.306 123.530,181.159 123.316,181.192 123.135 C 181.225 122.955,181.045 122.339,180.791 121.767 C 180.537 121.196,180.325 120.467,180.320 120.148 C 180.316 119.829,180.222 119.623,180.112 119.691 C 180.002 119.759,179.822 119.494,179.711 119.102 C 179.453 118.190,179.476 118.255,179.121 117.397 C 178.954 116.995,178.817 116.544,178.817 116.397 C 178.817 116.249,178.653 115.759,178.452 115.309 C 177.830 113.915,177.130 111.901,177.195 111.696 C 177.230 111.589,177.166 111.501,177.053 111.501 C 176.941 111.501,176.832 111.278,176.812 111.007 C 176.791 110.735,176.546 110.004,176.267 109.382 C 175.724 108.170,175.423 107.292,175.480 107.083 C 175.500 107.011,175.269 106.470,174.968 105.880 C 174.667 105.290,174.494 104.735,174.583 104.646 C 174.814 104.415,165.488 104.451,165.167 104.682 M197.209 129.050 L 197.276 153.617 202.277 153.547 L 207.277 153.476 207.277 145.119 C 207.277 140.202,207.374 136.821,207.513 136.907 C 207.649 136.991,207.654 136.901,207.525 136.691 C 207.402 136.493,207.269 135.861,207.228 135.287 C 207.135 133.960,206.885 128.525,206.762 125.146 C 206.710 123.717,206.613 121.319,206.547 119.818 C 206.440 117.405,206.464 117.194,206.753 117.999 C 206.932 118.499,207.029 118.996,206.968 119.103 C 206.907 119.211,206.981 119.298,207.132 119.298 C 207.284 119.298,207.407 119.509,207.407 119.766 C 207.407 120.023,207.506 120.345,207.627 120.481 C 207.748 120.617,208.297 122.116,208.846 123.813 C 209.396 125.510,209.994 127.045,210.174 127.226 C 210.354 127.406,210.439 127.616,210.362 127.693 C 210.286 127.769,210.455 128.357,210.739 128.998 C 211.022 129.639,211.451 130.848,211.690 131.684 C 211.930 132.520,212.295 133.467,212.502 133.788 C 212.708 134.110,212.813 134.373,212.735 134.373 C 212.656 134.373,212.773 134.723,212.994 135.150 C 213.215 135.577,213.381 135.992,213.364 136.071 C 213.346 136.150,213.450 136.531,213.594 136.918 C 213.738 137.305,213.944 137.856,214.050 138.142 C 214.156 138.428,214.272 138.778,214.307 138.921 C 214.342 139.064,214.412 139.354,214.463 139.565 C 214.513 139.776,214.696 140.101,214.869 140.287 C 215.041 140.473,215.117 140.798,215.036 141.008 C 214.955 141.218,215.026 141.391,215.192 141.391 C 215.359 141.391,215.428 141.500,215.345 141.634 C 215.262 141.767,215.429 142.294,215.715 142.803 C 216.001 143.313,216.187 143.730,216.127 143.730 C 216.067 143.730,216.255 144.431,216.545 145.289 C 216.835 146.147,217.185 146.849,217.323 146.849 C 217.461 146.849,217.499 146.971,217.407 147.120 C 217.315 147.269,217.350 147.532,217.486 147.705 C 217.622 147.877,217.729 148.221,217.725 148.470 C 217.716 149.014,218.637 151.000,218.900 151.004 C 219.003 151.006,219.024 151.172,218.946 151.374 C 218.869 151.575,218.985 152.087,219.204 152.510 C 219.423 152.934,219.529 153.354,219.439 153.443 C 219.350 153.533,220.821 153.606,222.710 153.606 C 226.337 153.606,227.474 153.240,227.075 152.200 C 226.992 151.982,227.030 151.738,227.160 151.657 C 227.291 151.576,227.332 151.339,227.251 151.129 C 227.171 150.919,227.209 150.747,227.337 150.747 C 227.465 150.747,227.589 150.486,227.613 150.166 C 227.638 149.847,227.780 149.544,227.930 149.494 C 228.080 149.444,228.145 149.308,228.073 149.193 C 228.002 149.077,228.112 148.657,228.318 148.259 C 228.525 147.861,228.634 147.440,228.561 147.322 C 228.489 147.205,228.560 147.109,228.720 147.109 C 228.880 147.109,228.955 147.019,228.887 146.909 C 228.819 146.799,228.978 146.245,229.240 145.679 C 229.502 145.113,229.660 144.559,229.593 144.449 C 229.525 144.339,229.612 144.250,229.788 144.250 C 229.963 144.250,230.029 144.173,229.935 144.078 C 229.841 143.984,229.904 143.739,230.075 143.532 C 230.397 143.145,230.474 142.925,230.597 142.040 C 230.637 141.754,230.805 141.433,230.971 141.325 C 231.137 141.218,231.241 140.926,231.203 140.676 C 231.164 140.426,231.210 140.162,231.305 140.091 C 231.551 139.906,232.619 136.873,232.619 136.361 C 232.619 136.125,232.722 135.932,232.849 135.932 C 232.976 135.932,233.140 135.611,233.214 135.218 C 233.288 134.825,233.537 133.999,233.767 133.383 C 233.998 132.767,234.226 132.066,234.274 131.824 C 234.322 131.582,234.577 130.916,234.839 130.344 C 235.101 129.773,235.328 129.246,235.343 129.175 C 235.383 128.976,236.278 126.238,236.447 125.796 C 236.529 125.582,236.630 125.289,236.672 125.146 C 236.989 124.067,237.965 121.751,238.131 121.681 C 238.244 121.633,238.337 121.331,238.337 121.009 C 238.337 120.688,238.424 120.337,238.532 120.230 C 238.639 120.122,238.730 119.957,238.735 119.861 C 238.755 119.435,239.504 117.219,239.628 117.219 C 239.772 117.219,239.691 120.829,239.496 123.067 C 239.255 125.831,239.128 130.254,238.960 141.715 L 238.786 153.606 243.890 153.606 L 248.993 153.606 248.993 129.045 L 248.993 104.483 242.369 104.483 L 235.744 104.483 235.313 105.458 C 235.076 105.994,234.848 106.550,234.807 106.693 C 234.766 106.836,234.506 107.537,234.230 108.252 C 233.954 108.967,233.780 109.698,233.844 109.877 C 233.909 110.055,233.835 110.201,233.680 110.201 C 233.525 110.201,233.398 110.416,233.398 110.678 C 233.398 110.940,233.317 111.235,233.218 111.334 C 233.119 111.433,233.000 111.765,232.953 112.072 C 232.906 112.379,232.737 112.788,232.576 112.981 C 232.416 113.175,232.354 113.403,232.440 113.488 C 232.525 113.574,232.324 114.185,231.994 114.846 C 231.663 115.508,231.440 116.185,231.499 116.350 C 231.558 116.516,231.483 116.728,231.333 116.821 C 231.182 116.914,231.059 117.268,231.059 117.609 C 231.059 117.949,230.940 118.301,230.795 118.391 C 230.650 118.481,230.598 118.663,230.680 118.796 C 230.763 118.929,230.719 119.038,230.582 119.038 C 230.446 119.038,230.265 119.220,230.180 119.442 C 230.093 119.669,230.136 119.777,230.277 119.689 C 230.416 119.604,230.367 119.861,230.168 120.261 C 229.357 121.895,229.180 122.399,229.149 123.151 C 229.131 123.585,229.068 123.891,229.008 123.831 C 228.902 123.726,228.513 124.711,227.564 127.485 C 227.319 128.200,227.020 129.019,226.898 129.305 C 226.777 129.591,226.145 131.404,225.493 133.333 C 223.039 140.602,222.920 140.803,222.344 138.661 C 222.109 137.788,222.105 137.774,221.899 137.232 C 221.818 137.018,221.480 136.023,221.147 135.023 C 220.815 134.022,220.423 133.117,220.278 133.012 C 220.127 132.904,220.120 132.820,220.260 132.817 C 220.396 132.815,220.376 132.682,220.215 132.522 C 220.055 132.362,219.986 132.069,220.061 131.872 C 220.137 131.675,220.073 131.514,219.919 131.514 C 219.765 131.514,219.707 131.339,219.789 131.124 C 219.871 130.910,219.802 130.734,219.636 130.734 C 219.469 130.734,219.405 130.617,219.493 130.474 C 219.582 130.331,219.534 130.214,219.387 130.214 C 219.240 130.214,219.189 130.035,219.273 129.815 C 219.357 129.595,219.246 129.215,219.026 128.970 C 218.805 128.725,218.582 128.174,218.529 127.745 C 218.476 127.316,218.287 126.702,218.109 126.381 C 217.931 126.059,217.862 125.796,217.956 125.796 C 218.050 125.796,218.017 125.650,217.881 125.471 C 217.746 125.292,217.422 124.419,217.161 123.530 C 216.889 122.604,216.575 121.983,216.425 122.076 C 216.282 122.165,216.240 122.115,216.332 121.965 C 216.514 121.671,215.622 118.631,215.208 118.132 C 215.069 117.965,214.920 117.603,214.877 117.329 C 214.835 117.054,214.704 116.675,214.586 116.487 C 214.469 116.299,214.436 116.082,214.513 116.004 C 214.591 115.927,214.375 115.233,214.034 114.462 C 213.693 113.691,213.474 113.060,213.548 113.060 C 213.622 113.060,213.492 112.870,213.259 112.637 C 213.026 112.404,212.897 112.053,212.972 111.857 C 213.048 111.661,212.989 111.501,212.842 111.501 C 212.695 111.501,212.642 111.392,212.724 111.259 C 212.807 111.126,212.755 110.944,212.610 110.854 C 212.465 110.764,212.346 110.308,212.346 109.840 C 212.346 109.371,212.258 108.901,212.151 108.794 C 212.044 108.686,211.951 108.521,211.944 108.425 C 211.938 108.330,211.674 107.760,211.359 107.158 C 210.866 106.216,210.625 105.483,210.546 104.678 C 210.535 104.571,207.515 104.483,203.834 104.483 L 197.141 104.483 197.209 129.050 M169.981 117.479 C 169.981 117.765,170.104 117.999,170.256 117.999 C 170.407 117.999,170.462 118.111,170.377 118.247 C 170.293 118.384,170.418 118.939,170.655 119.482 C 170.892 120.024,171.124 120.748,171.170 121.091 C 171.215 121.434,171.376 121.837,171.526 121.988 C 171.677 122.138,171.800 122.475,171.800 122.737 C 171.800 122.999,171.992 123.648,172.228 124.180 C 172.685 125.213,172.853 125.731,172.898 126.251 C 172.914 126.429,173.036 126.576,173.171 126.576 C 173.305 126.576,173.348 126.751,173.265 126.966 C 173.183 127.180,173.200 127.356,173.303 127.356 C 173.405 127.356,173.507 127.619,173.529 127.940 C 173.551 128.262,173.716 128.876,173.895 129.305 C 174.075 129.734,174.199 130.231,174.169 130.409 C 174.140 130.588,174.238 130.734,174.388 130.734 C 174.537 130.734,174.637 130.822,174.609 130.929 C 174.541 131.198,174.929 132.806,175.252 133.593 C 175.933 135.255,176.295 135.153,169.719 135.153 C 164.321 135.153,163.743 135.111,163.743 134.721 C 163.743 134.008,164.600 131.514,164.845 131.514 C 164.970 131.514,165.006 131.405,164.923 131.272 C 164.841 131.139,164.895 130.955,165.042 130.864 C 165.190 130.773,165.249 130.598,165.173 130.475 C 165.097 130.353,165.257 129.688,165.529 128.999 C 166.059 127.655,166.082 127.569,166.082 126.950 C 166.082 126.727,166.188 126.611,166.318 126.691 C 166.447 126.771,166.491 126.597,166.414 126.304 C 166.325 125.965,166.452 125.638,166.763 125.402 C 167.032 125.199,167.149 125.029,167.025 125.025 C 166.900 125.020,166.958 124.818,167.155 124.576 C 167.377 124.302,167.393 124.208,167.196 124.326 C 166.971 124.461,166.987 124.260,167.250 123.629 C 167.454 123.142,167.538 122.651,167.436 122.538 C 167.335 122.426,167.385 122.410,167.549 122.504 C 167.866 122.685,168.256 121.674,168.260 120.663 C 168.261 120.341,168.347 120.078,168.451 120.078 C 168.643 120.078,169.081 118.549,168.990 118.194 C 168.963 118.086,169.051 117.999,169.186 117.999 C 169.321 117.999,169.386 117.765,169.331 117.479 C 169.268 117.153,169.371 116.959,169.606 116.959 C 169.812 116.959,169.981 117.193,169.981 117.479 " stroke="none" fill="#042cfc" fill-rule="evenodd"></path><path id="path1" d="M125.474 103.628 C 125.797 103.690,126.265 103.687,126.514 103.622 C 126.762 103.557,126.498 103.506,125.926 103.509 C 125.354 103.512,125.151 103.565,125.474 103.628 M274.922 103.628 C 275.245 103.690,275.713 103.687,275.961 103.622 C 276.210 103.557,275.945 103.506,275.374 103.509 C 274.802 103.512,274.599 103.565,274.922 103.628 M121.796 103.917 C 121.724 104.034,122.010 104.079,122.431 104.017 C 122.852 103.955,123.197 103.859,123.197 103.804 C 123.197 103.606,121.925 103.708,121.796 103.917 M128.254 103.945 C 128.416 104.208,129.587 104.158,129.868 103.877 C 129.963 103.781,129.605 103.704,129.073 103.704 C 128.540 103.704,128.172 103.812,128.254 103.945 M280.664 104.289 C 280.795 104.420,281.178 104.484,281.516 104.431 C 282.037 104.349,282.000 104.312,281.278 104.193 C 280.762 104.107,280.519 104.145,280.664 104.289 M132.424 104.561 C 132.710 104.762,133.119 104.935,133.333 104.946 C 133.548 104.957,134.016 105.034,134.373 105.117 C 134.908 105.242,134.885 105.205,134.243 104.912 C 132.973 104.330,131.766 104.097,132.424 104.561 M164.547 105.045 C 164.389 105.497,164.313 105.921,164.379 105.986 C 164.444 106.051,164.574 105.798,164.668 105.424 C 164.762 105.050,164.855 104.721,164.875 104.693 C 164.896 104.665,167.135 104.572,169.851 104.487 L 174.789 104.331 169.811 104.277 L 164.833 104.224 164.547 105.045 M203.704 104.416 C 207.456 104.458,210.535 104.578,210.546 104.683 C 210.659 105.799,211.720 108.314,211.972 108.063 C 212.033 108.002,211.809 107.143,211.475 106.153 L 210.868 104.353 203.875 104.347 L 196.881 104.340 203.704 104.416 M235.010 105.185 C 234.619 106.460,234.847 106.632,235.346 105.437 L 235.741 104.492 242.432 104.418 L 249.123 104.344 242.214 104.284 L 235.305 104.224 235.010 105.185 M282.568 104.834 C 282.748 105.027,283.086 105.135,283.319 105.074 C 283.552 105.013,283.907 105.118,284.107 105.308 C 284.307 105.498,284.704 105.679,284.990 105.711 C 285.276 105.743,284.925 105.481,284.211 105.130 C 282.720 104.396,282.046 104.275,282.568 104.834 M174.707 105.394 C 174.870 105.752,175.038 106.010,175.081 105.968 C 175.239 105.810,174.850 104.743,174.634 104.743 C 174.511 104.743,174.544 105.036,174.707 105.394 M197.136 129.175 C 197.136 142.684,197.167 148.210,197.206 141.455 C 197.244 134.701,197.244 123.648,197.206 116.894 C 197.167 110.140,197.136 115.666,197.136 129.175 M114.827 105.948 C 113.194 106.819,109.534 109.860,110.526 109.521 C 110.776 109.436,110.981 109.255,110.981 109.119 C 110.981 108.983,111.116 108.955,111.281 109.057 C 111.448 109.159,111.511 109.129,111.424 108.988 C 111.258 108.719,112.110 107.862,112.544 107.862 C 112.685 107.862,112.801 107.738,112.801 107.587 C 112.801 107.436,112.918 107.385,113.062 107.474 C 113.206 107.562,113.394 107.453,113.479 107.230 C 113.565 107.008,113.732 106.886,113.851 106.960 C 113.971 107.033,114.163 106.931,114.279 106.732 C 114.395 106.533,115.075 106.068,115.789 105.699 C 116.504 105.329,116.972 105.025,116.829 105.023 C 116.686 105.020,115.785 105.437,114.827 105.948 M135.153 105.390 C 135.153 105.594,137.513 106.888,137.645 106.756 C 137.716 106.685,137.389 106.401,136.918 106.125 C 135.950 105.557,135.153 105.226,135.153 105.390 M263.967 106.107 C 261.611 107.385,257.518 111.501,258.603 111.501 C 258.757 111.501,258.993 111.209,259.129 110.851 C 259.265 110.494,259.496 110.201,259.643 110.201 C 259.789 110.201,259.880 110.105,259.844 109.987 C 259.766 109.730,261.637 107.862,261.971 107.862 C 262.100 107.862,262.244 107.759,262.292 107.633 C 262.410 107.320,264.885 105.776,265.080 105.894 C 265.167 105.946,265.388 105.825,265.572 105.626 C 266.090 105.066,265.636 105.202,263.967 106.107 M286.552 106.559 C 286.462 106.704,286.571 106.823,286.794 106.823 C 287.017 106.823,287.199 106.913,287.199 107.023 C 287.199 107.134,287.595 107.437,288.078 107.697 C 288.562 107.958,289.105 108.448,289.287 108.787 C 289.469 109.126,289.716 109.343,289.838 109.268 C 290.034 109.146,290.103 109.348,290.036 109.847 C 290.024 109.939,290.142 110.092,290.297 110.188 C 290.799 110.498,291.865 112.091,291.724 112.319 C 291.649 112.441,291.711 112.541,291.863 112.541 C 292.014 112.541,292.138 112.718,292.138 112.934 C 292.138 113.150,292.243 113.530,292.371 113.779 C 292.499 114.027,292.736 114.522,292.897 114.880 C 293.172 115.489,293.182 115.475,293.054 114.651 C 292.616 111.837,287.345 105.276,286.552 106.559 M163.729 107.249 C 163.586 107.626,163.516 107.983,163.575 108.042 C 163.634 108.100,163.807 107.792,163.959 107.356 C 164.297 106.386,164.093 106.291,163.729 107.249 M233.791 108.707 C 233.385 109.886,232.994 111.017,232.922 111.219 C 232.839 111.451,232.902 111.517,233.094 111.398 C 233.261 111.295,233.398 110.983,233.398 110.706 C 233.398 110.428,233.528 110.201,233.686 110.201 C 233.844 110.201,233.913 110.044,233.839 109.852 C 233.766 109.659,233.974 108.840,234.302 108.032 C 234.631 107.224,234.816 106.563,234.714 106.563 C 234.612 106.563,234.196 107.528,233.791 108.707 M138.012 106.915 C 138.012 107.175,139.553 108.574,139.689 108.437 C 139.767 108.359,139.831 108.463,139.831 108.667 C 139.831 108.871,140.123 109.258,140.481 109.526 C 140.838 109.795,141.385 110.524,141.696 111.147 C 142.008 111.771,142.366 112.281,142.492 112.281 C 142.618 112.281,142.648 112.398,142.560 112.541 C 142.472 112.684,142.543 112.801,142.718 112.801 C 142.893 112.801,142.963 112.874,142.874 112.963 C 142.784 113.053,142.886 113.466,143.101 113.881 C 143.315 114.296,143.426 114.741,143.346 114.869 C 143.267 114.998,143.339 115.189,143.506 115.292 C 144.648 115.998,142.443 111.172,140.739 109.236 C 139.651 107.999,138.012 106.604,138.012 106.915 M175.668 107.980 C 175.910 108.617,176.207 109.231,176.329 109.345 C 176.450 109.459,176.483 109.376,176.401 109.162 C 176.319 108.947,176.109 108.333,175.934 107.797 C 175.759 107.261,175.529 106.823,175.423 106.823 C 175.316 106.823,175.427 107.344,175.668 107.980 M162.751 109.551 C 162.588 109.909,162.561 110.201,162.691 110.201 C 162.947 110.201,163.342 109.195,163.159 109.011 C 163.098 108.950,162.914 109.193,162.751 109.551 M212.346 109.883 C 212.346 110.327,212.465 110.764,212.610 110.854 C 212.755 110.944,212.807 111.126,212.724 111.259 C 212.642 111.392,212.695 111.501,212.842 111.501 C 212.989 111.501,213.048 111.661,212.972 111.857 C 212.897 112.053,212.989 112.378,213.175 112.578 C 213.362 112.779,213.536 113.057,213.562 113.197 C 213.650 113.678,214.405 115.269,214.415 114.996 C 214.427 114.661,212.667 109.396,212.480 109.209 C 212.406 109.135,212.346 109.439,212.346 109.883 M108.956 111.670 C 108.190 113.204,107.580 115.143,108.110 114.360 C 108.255 114.146,108.376 113.774,108.378 113.534 C 108.380 113.294,108.566 112.914,108.790 112.689 C 109.015 112.464,109.121 112.281,109.025 112.281 C 108.929 112.281,109.101 111.857,109.407 111.338 C 109.712 110.820,109.907 110.340,109.839 110.272 C 109.771 110.204,109.374 110.833,108.956 111.670 M162.077 111.202 C 161.667 111.866,159.936 117.219,160.132 117.219 C 160.347 117.219,160.467 116.834,160.395 116.374 C 160.378 116.267,160.455 116.179,160.567 116.179 C 160.784 116.179,161.473 114.083,161.348 113.802 C 161.307 113.710,161.478 113.408,161.729 113.132 C 161.979 112.855,162.122 112.566,162.047 112.491 C 161.971 112.415,162.026 112.044,162.170 111.667 C 162.419 111.011,162.365 110.737,162.077 111.202 M123.976 111.566 C 123.977 111.673,124.815 111.761,125.839 111.761 C 126.864 111.761,127.634 111.693,127.551 111.610 C 127.324 111.383,123.976 111.341,123.976 111.566 M273.519 111.557 C 273.450 111.669,273.927 111.761,274.579 111.761 C 275.230 111.761,275.763 111.715,275.763 111.658 C 275.763 111.454,273.642 111.359,273.519 111.557 M122.455 111.940 C 122.171 112.244,122.234 112.273,122.853 112.124 C 123.794 111.898,123.838 111.853,123.264 111.703 C 123.004 111.635,122.640 111.742,122.455 111.940 M128.655 111.923 C 128.655 111.951,129.174 112.226,129.808 112.533 C 130.442 112.840,131.387 113.562,131.908 114.138 C 132.428 114.715,132.910 115.130,132.978 115.062 C 133.161 114.879,130.742 112.399,130.456 112.476 C 130.323 112.511,130.214 112.417,130.214 112.265 C 130.214 112.114,130.097 112.062,129.955 112.151 C 129.812 112.239,129.695 112.195,129.695 112.052 C 129.695 111.910,129.461 111.811,129.175 111.832 C 128.889 111.854,128.655 111.895,128.655 111.923 M177.564 113.125 C 177.860 113.876,178.263 114.858,178.460 115.309 C 178.656 115.759,178.817 116.249,178.817 116.397 C 178.817 116.544,178.954 116.995,179.121 117.397 C 179.477 118.258,179.453 118.189,179.716 119.122 C 179.837 119.552,180.019 119.760,180.154 119.625 C 180.492 119.287,177.674 111.772,177.207 111.764 C 177.108 111.762,177.269 112.375,177.564 113.125 M232.144 113.385 C 231.454 115.351,231.430 115.851,232.085 114.620 C 232.351 114.120,232.512 113.618,232.441 113.504 C 232.371 113.390,232.423 113.156,232.556 112.984 C 232.926 112.504,233.147 111.761,232.918 111.761 C 232.806 111.761,232.458 112.492,232.144 113.385 M271.148 112.240 C 267.268 113.815,266.058 118.121,268.781 120.660 C 269.358 121.198,269.966 121.636,270.132 121.635 C 270.299 121.633,270.041 121.321,269.558 120.940 C 266.547 118.568,267.374 114.213,271.153 112.541 C 272.950 111.746,272.946 111.509,271.148 112.240 M120.017 113.339 C 118.753 114.423,117.846 115.903,118.083 116.494 C 118.167 116.704,118.225 116.657,118.238 116.369 C 118.275 115.548,119.659 113.765,120.844 113.014 C 121.479 112.611,121.830 112.281,121.623 112.282 C 121.417 112.283,120.694 112.759,120.017 113.339 M257.746 112.832 C 257.557 113.554,257.608 113.628,257.999 113.203 C 258.163 113.024,258.209 112.733,258.100 112.557 C 257.964 112.338,257.853 112.425,257.746 112.832 M281.352 114.002 C 281.780 114.419,282.177 114.731,282.233 114.696 C 282.409 114.586,281.679 113.825,281.113 113.528 C 280.745 113.335,280.822 113.487,281.352 114.002 M133.121 116.050 C 133.284 116.408,133.453 116.667,133.495 116.624 C 133.653 116.466,133.264 115.400,133.049 115.400 C 132.925 115.400,132.958 115.693,133.121 116.050 M143.581 116.179 C 143.581 116.465,143.673 116.699,143.785 116.699 C 143.898 116.699,143.990 116.465,143.990 116.179 C 143.990 115.893,143.898 115.660,143.785 115.660 C 143.673 115.660,143.581 115.893,143.581 116.179 M214.425 116.136 C 214.425 116.255,214.506 116.434,214.605 116.533 C 214.704 116.632,214.822 116.954,214.867 117.250 C 214.912 117.545,215.138 118.039,215.369 118.348 C 215.628 118.694,215.734 118.745,215.645 118.481 C 215.566 118.245,215.358 117.573,215.182 116.986 C 214.903 116.055,214.425 115.518,214.425 116.136 M293.067 116.353 C 292.975 116.591,293.021 116.907,293.169 117.055 C 293.354 117.239,293.437 117.104,293.437 116.621 C 293.437 115.819,293.307 115.725,293.067 116.353 M257.223 116.613 C 257.128 116.708,257.050 117.488,257.050 118.345 C 257.050 119.203,257.136 119.819,257.240 119.714 C 257.381 119.574,257.551 116.441,257.418 116.440 C 257.406 116.439,257.319 116.517,257.223 116.613 M169.287 117.349 C 169.287 117.563,169.443 117.739,169.634 117.739 C 169.825 117.739,169.981 117.563,169.981 117.349 C 169.981 117.135,169.825 116.959,169.634 116.959 C 169.443 116.959,169.287 117.135,169.287 117.349 M206.439 118.229 C 206.439 118.958,206.535 119.218,206.773 119.127 C 207.030 119.028,207.043 118.810,206.829 118.174 C 206.451 117.055,206.439 117.057,206.439 118.229 M230.744 117.616 C 230.664 117.898,230.514 118.333,230.411 118.583 C 230.299 118.856,230.339 119.038,230.512 119.038 C 230.670 119.038,230.781 118.951,230.758 118.843 C 230.735 118.736,230.805 118.448,230.912 118.202 C 231.020 117.957,231.059 117.609,230.999 117.429 C 230.934 117.235,230.831 117.310,230.744 117.616 M239.116 118.454 C 238.911 119.133,238.739 119.766,238.735 119.861 C 238.730 119.957,238.639 120.122,238.532 120.230 C 238.424 120.337,238.337 120.697,238.337 121.031 C 238.337 121.365,238.220 121.637,238.077 121.637 C 237.934 121.637,237.814 121.784,237.811 121.962 C 237.807 122.141,237.528 122.960,237.190 123.782 C 236.807 124.714,236.687 125.276,236.871 125.276 C 237.034 125.276,237.635 123.960,238.207 122.352 L 239.246 119.428 239.327 120.848 C 239.373 121.668,239.493 122.129,239.611 121.939 C 239.722 121.758,239.725 121.045,239.616 120.354 C 239.506 119.664,239.513 118.676,239.629 118.159 C 239.939 116.788,239.553 117.009,239.116 118.454 M143.934 118.259 C 143.997 118.687,144.094 119.038,144.149 119.038 C 144.204 119.038,144.250 118.687,144.250 118.259 C 144.250 117.830,144.153 117.479,144.035 117.479 C 143.916 117.479,143.871 117.830,143.934 118.259 M159.723 117.724 C 159.466 118.140,158.821 120.078,158.939 120.078 C 159.001 120.078,159.232 119.727,159.454 119.298 C 159.676 118.869,159.792 118.519,159.712 118.519 C 159.631 118.519,159.691 118.285,159.844 117.999 C 160.119 117.485,160.016 117.250,159.723 117.724 M107.606 118.670 C 107.609 119.087,107.708 119.582,107.827 119.770 C 107.962 119.983,108.023 119.758,107.987 119.176 C 107.918 118.034,107.601 117.613,107.606 118.670 M168.990 118.194 C 169.079 118.544,168.644 120.078,168.456 120.078 C 168.355 120.078,168.273 120.310,168.273 120.594 C 168.273 121.335,168.548 120.921,169.036 119.447 C 169.537 117.935,169.530 117.999,169.201 117.999 C 169.058 117.999,168.963 118.086,168.990 118.194 M118.019 118.583 C 118.008 118.832,118.406 119.488,118.904 120.039 C 119.401 120.590,119.723 121.135,119.618 121.251 C 119.514 121.366,119.574 121.377,119.753 121.274 C 119.932 121.171,120.078 121.211,120.078 121.362 C 120.078 121.514,120.276 121.637,120.519 121.637 C 120.841 121.637,120.718 121.407,120.064 120.782 C 119.039 119.802,118.390 119.011,118.183 118.490 C 118.080 118.230,118.034 118.256,118.019 118.583 M170.519 119.703 C 170.560 120.257,170.941 120.936,171.082 120.708 C 171.166 120.573,171.069 120.236,170.867 119.960 C 170.665 119.685,170.509 119.569,170.519 119.703 M180.307 119.975 C 180.159 120.122,180.311 120.628,180.963 122.157 C 181.115 122.515,181.218 122.944,181.191 123.112 C 181.140 123.435,181.629 123.850,181.827 123.653 C 181.924 123.556,180.728 120.084,180.528 119.883 C 180.493 119.847,180.393 119.889,180.307 119.975 M158.447 120.951 C 158.359 121.302,158.215 121.775,158.128 122.003 C 158.041 122.231,158.083 122.417,158.223 122.417 C 158.362 122.417,158.547 121.985,158.632 121.456 C 158.812 120.351,158.685 120.004,158.447 120.951 M207.711 121.131 C 207.863 121.567,208.036 121.876,208.095 121.817 C 208.223 121.688,207.733 120.338,207.557 120.338 C 207.490 120.338,207.559 120.695,207.711 121.131 M216.320 121.352 C 216.350 121.767,216.445 122.063,216.531 122.010 C 216.617 121.958,216.900 122.642,217.159 123.530 C 217.419 124.419,217.746 125.263,217.886 125.406 C 218.054 125.577,218.096 125.533,218.010 125.276 C 217.939 125.062,217.561 123.921,217.171 122.742 C 216.412 120.447,216.233 120.156,216.320 121.352 M121.448 122.174 C 121.610 122.432,121.806 122.603,121.886 122.554 C 121.965 122.505,122.445 122.667,122.952 122.913 C 124.169 123.505,124.756 123.725,124.756 123.590 C 124.756 123.529,123.946 123.080,122.956 122.592 C 121.581 121.914,121.225 121.816,121.448 122.174 M270.565 121.859 C 270.565 122.143,272.614 123.197,273.165 123.197 C 273.325 123.197,273.384 123.313,273.296 123.454 C 273.202 123.606,273.318 123.641,273.582 123.540 C 273.913 123.413,273.673 123.214,272.641 122.759 C 271.880 122.423,271.101 122.019,270.911 121.861 C 270.661 121.653,270.565 121.653,270.565 121.859 M108.391 122.092 C 108.416 122.613,109.090 123.497,109.208 123.162 C 109.276 122.967,109.118 122.602,108.857 122.352 C 108.596 122.102,108.386 121.985,108.391 122.092 M171.298 122.077 C 171.357 122.752,171.763 123.324,171.782 122.757 C 171.792 122.444,171.683 122.116,171.540 122.027 C 171.397 121.939,171.288 121.961,171.298 122.077 M167.535 122.606 C 167.575 122.675,167.488 123.040,167.342 123.419 C 166.982 124.348,166.836 125.129,167.065 124.900 C 167.167 124.797,167.261 124.635,167.273 124.540 C 167.285 124.444,167.436 124.026,167.608 123.609 C 167.784 123.182,167.821 122.772,167.692 122.667 C 167.566 122.565,167.495 122.538,167.535 122.606 M157.544 123.457 C 157.394 123.886,157.321 124.237,157.382 124.237 C 157.442 124.237,157.673 123.886,157.895 123.457 C 158.117 123.028,158.189 122.677,158.057 122.677 C 157.924 122.677,157.693 123.028,157.544 123.457 M258.367 122.906 C 258.350 123.251,259.325 125.016,259.532 125.016 C 259.667 125.016,259.338 124.141,259.141 123.977 C 259.055 123.905,258.850 123.554,258.685 123.197 C 258.520 122.840,258.377 122.709,258.367 122.906 M125.194 123.876 C 125.332 124.237,125.625 124.339,126.272 124.251 C 126.462 124.225,126.871 124.368,127.181 124.569 C 127.891 125.028,129.175 125.355,129.175 125.076 C 129.175 124.961,128.248 124.563,127.115 124.191 C 125.600 123.695,125.092 123.611,125.194 123.876 M274.531 123.652 C 274.639 123.712,274.659 123.871,274.576 124.005 C 274.493 124.140,274.522 124.233,274.640 124.212 C 274.757 124.192,274.912 124.198,274.984 124.225 C 275.055 124.253,275.406 124.326,275.763 124.389 C 276.121 124.451,276.589 124.578,276.803 124.669 C 277.018 124.761,277.310 124.848,277.453 124.862 C 278.135 124.930,280.182 125.673,280.182 125.853 C 280.182 125.964,280.299 126.056,280.442 126.056 C 281.412 126.056,280.270 125.436,277.778 124.610 C 274.920 123.662,274.133 123.430,274.531 123.652 M109.543 124.242 C 111.200 126.332,115.140 129.669,115.140 128.984 C 115.140 128.868,114.701 128.543,114.165 128.261 C 113.629 127.979,112.255 126.814,111.111 125.673 C 109.968 124.532,109.262 123.888,109.543 124.242 M181.676 124.305 C 181.676 124.486,181.910 125.071,182.196 125.604 C 182.482 126.137,182.716 126.761,182.716 126.989 C 182.716 127.218,182.956 127.742,183.249 128.153 C 183.542 128.565,183.762 129.051,183.738 129.233 C 183.654 129.869,183.758 130.214,184.033 130.214 C 184.363 130.214,184.276 129.889,183.042 126.511 C 182.214 124.244,181.676 123.376,181.676 124.305 M228.100 125.176 C 227.556 126.772,227.749 126.964,228.340 125.416 C 228.590 124.761,228.733 124.163,228.657 124.087 C 228.581 124.011,228.330 124.501,228.100 125.176 M172.171 124.586 C 172.254 124.849,172.393 125.346,172.479 125.690 C 172.565 126.034,172.744 126.316,172.877 126.316 C 173.009 126.316,172.977 126.053,172.805 125.731 C 172.633 125.409,172.534 125.146,172.585 125.146 C 172.636 125.146,172.530 124.912,172.349 124.626 C 172.069 124.182,172.043 124.176,172.171 124.586 M206.688 125.016 C 206.688 125.517,206.741 125.721,206.807 125.471 C 206.872 125.221,206.872 124.812,206.807 124.561 C 206.741 124.311,206.688 124.516,206.688 125.016 M156.869 125.369 C 156.630 125.921,156.489 126.427,156.556 126.493 C 156.623 126.560,156.763 126.343,156.866 126.010 C 156.970 125.678,157.171 125.332,157.312 125.241 C 157.453 125.151,157.509 124.917,157.436 124.721 C 157.356 124.508,157.129 124.767,156.869 125.369 M129.435 125.256 C 129.435 125.387,129.815 125.577,130.279 125.677 C 130.744 125.777,131.475 126.043,131.904 126.268 C 132.833 126.756,133.333 126.866,133.333 126.583 C 133.333 126.415,129.955 125.016,129.550 125.016 C 129.486 125.016,129.435 125.124,129.435 125.256 M166.699 125.475 C 166.453 125.636,165.956 127.203,166.084 127.416 C 166.107 127.454,165.877 128.115,165.574 128.884 C 165.117 130.044,165.020 130.890,165.395 130.453 C 165.660 130.143,166.570 126.995,166.451 126.802 C 166.374 126.677,166.421 126.576,166.556 126.576 C 166.691 126.576,166.857 126.283,166.925 125.926 C 166.994 125.569,167.036 125.278,167.020 125.280 C 167.005 125.282,166.860 125.370,166.699 125.475 M239.182 126.446 C 239.185 127.018,239.238 127.221,239.300 126.898 C 239.362 126.574,239.360 126.106,239.295 125.858 C 239.230 125.609,239.179 125.874,239.182 126.446 M218.076 126.338 C 218.235 126.636,218.417 126.828,218.481 126.765 C 218.663 126.583,218.294 125.796,218.027 125.796 C 217.894 125.796,217.916 126.040,218.076 126.338 M281.280 126.152 C 281.513 126.385,282.005 126.576,282.373 126.576 C 282.740 126.576,283.041 126.700,283.041 126.851 C 283.041 127.002,283.148 127.060,283.279 126.979 C 283.409 126.898,283.558 126.956,283.608 127.108 C 283.659 127.260,283.873 127.416,284.085 127.456 C 284.739 127.580,285.900 128.207,285.900 128.437 C 285.900 128.557,286.075 128.655,286.290 128.655 C 286.504 128.655,286.680 128.758,286.680 128.883 C 286.680 129.009,287.033 129.258,287.466 129.437 C 287.898 129.616,288.336 129.894,288.440 130.054 C 288.544 130.214,288.921 130.566,289.279 130.836 C 289.636 131.106,289.256 130.673,288.434 129.873 C 287.040 128.515,283.417 126.445,281.494 125.906 C 280.904 125.741,280.888 125.759,281.280 126.152 M133.757 126.960 C 133.834 127.160,134.062 127.259,134.265 127.181 C 134.467 127.104,134.633 127.149,134.633 127.281 C 134.633 127.414,135.247 127.797,135.997 128.132 C 136.748 128.467,137.596 128.954,137.882 129.214 C 138.168 129.474,139.153 130.389,140.072 131.248 C 142.381 133.405,142.356 133.032,140.038 130.746 C 137.794 128.534,133.328 125.842,133.757 126.960 M155.971 127.654 C 155.621 128.656,155.621 128.655,155.961 128.655 C 156.112 128.655,156.177 128.559,156.104 128.441 C 156.031 128.324,156.135 127.915,156.333 127.532 C 156.532 127.149,156.596 126.836,156.475 126.836 C 156.355 126.836,156.128 127.204,155.971 127.654 M218.527 127.867 C 218.589 128.291,218.825 128.788,219.050 128.971 C 219.402 129.257,219.435 129.236,219.281 128.826 C 219.182 128.562,219.030 128.065,218.944 127.721 C 218.720 126.830,218.392 126.945,218.527 127.867 M173.099 127.528 C 173.099 128.061,173.998 130.432,174.162 130.330 C 174.269 130.264,174.178 129.851,173.959 129.413 C 173.741 128.975,173.546 128.333,173.526 127.986 C 173.495 127.452,173.099 127.026,173.099 127.528 M262.652 127.898 C 262.864 128.241,263.808 128.708,263.806 128.469 C 263.805 128.357,263.512 128.130,263.156 127.965 C 262.799 127.799,262.573 127.769,262.652 127.898 M264.068 128.803 C 264.068 128.857,264.448 129.098,264.912 129.338 C 265.626 129.707,265.705 129.713,265.424 129.373 C 265.121 129.008,264.068 128.565,264.068 128.803 M116.356 129.831 C 117.641 130.601,121.125 132.113,121.273 131.965 C 121.330 131.908,121.114 131.736,120.792 131.584 C 119.398 130.921,117.729 130.214,117.547 130.209 C 117.438 130.205,117.057 129.974,116.699 129.695 C 116.342 129.415,115.874 129.185,115.660 129.183 C 115.445 129.181,115.758 129.473,116.356 129.831 M210.962 130.084 C 211.047 130.513,211.214 131.040,211.333 131.254 C 211.723 131.954,211.588 130.962,211.175 130.084 L 210.808 129.305 210.962 130.084 M234.727 130.528 C 234.327 131.498,234.294 131.606,234.071 132.684 C 233.982 133.112,234.208 132.716,234.573 131.803 C 234.939 130.890,235.202 130.037,235.159 129.908 C 235.116 129.778,234.921 130.057,234.727 130.528 M266.147 129.930 C 266.147 130.384,276.973 134.550,277.301 134.222 C 277.544 133.978,276.886 133.622,275.504 133.250 C 273.490 132.707,269.968 131.435,267.901 130.506 C 266.936 130.072,266.147 129.812,266.147 129.930 M184.297 130.652 C 184.265 131.112,184.789 132.387,184.946 132.230 C 185.020 132.155,184.910 131.701,184.700 131.219 C 184.490 130.738,184.308 130.483,184.297 130.652 M174.305 131.449 C 174.401 131.842,174.689 132.778,174.945 133.528 L 175.411 134.893 169.721 134.893 L 164.031 134.893 164.536 133.423 C 165.098 131.790,165.140 131.514,164.830 131.514 C 164.596 131.514,163.743 134.032,163.743 134.721 C 163.743 135.111,164.321 135.153,169.719 135.153 C 176.295 135.153,175.933 135.255,175.252 133.593 C 174.929 132.806,174.541 131.198,174.609 130.929 C 174.637 130.822,174.540 130.734,174.394 130.734 C 174.236 130.734,174.200 131.022,174.305 131.449 M290.394 132.120 C 290.551 132.454,290.834 132.727,291.024 132.727 C 291.244 132.727,291.163 132.509,290.798 132.120 C 290.484 131.787,290.201 131.514,290.168 131.514 C 290.134 131.514,290.236 131.787,290.394 132.120 M121.637 132.033 C 121.637 132.201,122.993 132.814,123.366 132.814 C 123.829 132.814,123.263 132.321,122.547 132.102 C 122.047 131.948,121.637 131.917,121.637 132.033 M220.054 131.968 C 219.955 132.127,219.995 132.332,220.143 132.424 C 220.291 132.515,220.344 132.698,220.262 132.831 C 220.180 132.965,220.236 133.073,220.388 133.073 C 220.701 133.073,220.709 132.895,220.429 132.181 C 220.304 131.860,220.168 131.783,220.054 131.968 M124.733 133.093 C 124.508 133.236,124.484 133.327,124.670 133.329 C 124.837 133.332,125.159 133.404,125.385 133.491 C 125.611 133.578,125.796 133.532,125.796 133.389 C 125.796 133.005,125.154 132.827,124.733 133.093 M142.087 133.463 C 142.188 133.749,142.485 134.349,142.748 134.797 C 143.010 135.245,143.404 136.470,143.623 137.520 C 144.070 139.662,144.404 140.327,144.131 138.532 C 143.871 136.813,143.013 134.337,142.421 133.593 C 142.009 133.076,141.941 133.049,142.087 133.463 M185.190 133.620 C 185.248 133.920,185.431 134.330,185.597 134.529 C 185.763 134.729,185.823 134.893,185.731 134.893 C 185.639 134.893,185.728 135.156,185.930 135.478 C 186.132 135.799,186.262 136.268,186.219 136.518 C 186.176 136.769,186.238 136.914,186.356 136.841 C 186.560 136.716,187.031 138.174,186.924 138.596 C 186.897 138.704,187.001 138.791,187.156 138.791 C 187.311 138.791,187.385 138.938,187.320 139.116 C 187.255 139.295,187.377 139.642,187.591 139.887 C 187.804 140.133,187.979 140.630,187.979 140.992 C 187.979 141.354,188.101 141.650,188.250 141.650 C 188.399 141.650,188.448 141.723,188.359 141.813 C 188.269 141.902,188.409 142.399,188.668 142.917 C 189.138 143.856,189.590 145.266,189.525 145.589 C 189.506 145.683,189.684 145.917,189.922 146.109 C 190.292 146.409,190.319 146.403,190.116 146.069 C 189.985 145.854,189.852 145.508,189.821 145.300 C 189.679 144.359,187.832 139.571,187.611 139.571 C 187.475 139.571,187.429 139.465,187.510 139.335 C 187.679 139.061,185.534 133.077,185.265 133.075 C 185.166 133.074,185.132 133.319,185.190 133.620 M291.358 133.318 C 291.358 133.453,291.477 133.636,291.622 133.726 C 291.767 133.816,291.841 133.969,291.785 134.066 C 291.730 134.163,291.917 134.477,292.201 134.763 C 292.693 135.257,292.691 135.228,292.163 134.178 C 291.622 133.102,291.358 132.820,291.358 133.318 M126.056 133.550 C 126.056 133.669,126.472 133.894,126.981 134.050 C 127.770 134.292,127.861 134.280,127.601 133.966 C 127.434 133.764,127.193 133.663,127.066 133.741 C 126.939 133.820,126.836 133.760,126.836 133.609 C 126.836 133.457,126.660 133.333,126.446 133.333 C 126.231 133.333,126.056 133.431,126.056 133.550 M233.441 134.254 C 233.274 134.619,233.147 135.116,233.157 135.360 C 233.167 135.603,233.343 135.345,233.548 134.786 C 233.972 133.628,233.896 133.254,233.441 134.254 M238.917 134.633 C 238.917 135.133,238.970 135.338,239.036 135.088 C 239.101 134.838,239.101 134.428,239.036 134.178 C 238.970 133.928,238.917 134.133,238.917 134.633 M128.135 134.319 C 128.135 134.432,128.749 134.826,129.500 135.194 C 130.745 135.805,132.962 137.438,132.971 137.752 C 132.973 137.823,133.120 138.116,133.296 138.402 C 133.595 138.884,133.606 138.874,133.445 138.272 C 133.228 137.458,132.648 136.776,131.644 136.156 C 131.215 135.891,130.981 135.674,131.124 135.673 C 131.267 135.673,130.858 135.416,130.214 135.102 C 129.571 134.788,128.986 134.467,128.915 134.387 C 128.699 134.148,128.135 134.098,128.135 134.319 M277.587 134.293 C 277.593 134.568,281.253 136.507,281.431 136.329 C 281.624 136.137,281.347 135.905,280.835 135.830 C 280.596 135.795,280.322 135.655,280.226 135.519 C 280.075 135.304,278.729 134.581,278.363 134.517 C 278.291 134.505,278.086 134.402,277.908 134.289 C 277.729 134.175,277.585 134.177,277.587 134.293 M207.277 144.119 C 207.277 149.336,207.367 153.605,207.476 153.606 C 207.586 153.606,207.669 149.337,207.661 144.120 C 207.653 138.902,207.563 134.633,207.462 134.633 C 207.360 134.633,207.277 138.902,207.277 144.119 M212.757 135.153 C 212.950 135.877,213.073 136.072,213.234 135.910 C 213.294 135.851,213.172 135.509,212.963 135.152 L 212.584 134.503 212.757 135.153 M213.276 136.712 C 213.526 137.655,213.890 138.273,213.888 137.752 C 213.887 137.537,213.711 137.070,213.495 136.712 L 213.104 136.062 213.276 136.712 M293.034 137.045 C 293.074 137.586,293.181 138.102,293.272 138.193 C 293.511 138.431,293.441 137.196,293.181 136.582 C 293.018 136.197,292.980 136.318,293.034 137.045 M221.702 136.741 C 221.702 136.963,221.790 137.233,221.897 137.340 C 222.005 137.447,222.105 137.613,222.121 137.708 C 222.419 139.511,223.085 140.535,223.336 139.576 C 223.411 139.287,223.377 139.110,223.259 139.183 C 223.140 139.256,222.901 138.876,222.726 138.339 C 222.331 137.124,221.702 136.143,221.702 136.741 M232.128 138.041 C 231.968 138.500,231.882 138.921,231.938 138.977 C 231.993 139.032,232.170 138.702,232.330 138.243 C 232.490 137.783,232.575 137.362,232.520 137.307 C 232.464 137.251,232.288 137.581,232.128 138.041 M238.596 145.549 C 238.596 150.028,238.653 153.637,238.721 153.568 C 238.896 153.393,238.914 137.723,238.739 137.548 C 238.661 137.470,238.596 141.070,238.596 145.549 M106.074 138.721 C 106.103 139.667,106.110 139.674,106.271 138.921 L 106.438 138.142 111.357 138.142 L 116.275 138.142 116.379 139.051 C 116.532 140.396,116.738 140.390,116.644 139.043 L 116.563 137.882 111.303 137.811 L 106.043 137.741 106.074 138.721 M255.491 138.417 C 255.491 138.794,255.603 139.012,255.750 138.921 C 255.893 138.833,256.010 138.587,256.010 138.375 C 256.010 138.046,256.724 138.001,260.949 138.066 C 263.665 138.108,265.887 138.054,265.887 137.947 C 265.887 137.840,263.548 137.752,260.689 137.752 L 255.491 137.752 255.491 138.417 M151.817 138.965 C 151.800 139.132,151.711 139.483,151.619 139.745 C 151.488 140.114,151.523 140.154,151.773 139.924 C 151.950 139.760,152.040 139.409,151.971 139.144 C 151.903 138.879,151.834 138.798,151.817 138.965 M293.520 140.351 C 293.520 141.280,293.568 141.660,293.625 141.196 C 293.683 140.731,293.683 139.971,293.625 139.506 C 293.568 139.042,293.520 139.422,293.520 140.351 M143.989 140.611 C 143.955 141.111,143.947 141.625,143.971 141.753 C 143.995 141.880,143.904 142.302,143.769 142.690 C 143.633 143.078,143.617 143.547,143.731 143.732 C 143.973 144.123,144.371 140.955,144.176 140.193 C 144.099 139.893,144.026 140.056,143.989 140.611 M106.303 141.001 C 106.303 141.358,106.348 141.650,106.402 141.650 C 106.457 141.650,106.558 141.358,106.626 141.001 C 106.695 140.643,106.650 140.351,106.527 140.351 C 106.404 140.351,106.303 140.643,106.303 141.001 M116.648 140.489 C 116.402 140.735,117.184 142.485,117.806 143.080 L 118.349 143.600 117.892 142.860 C 117.640 142.454,117.295 141.717,117.124 141.223 C 116.953 140.728,116.738 140.398,116.648 140.489 M266.072 141.131 C 266.146 141.417,266.298 141.650,266.409 141.650 C 266.520 141.650,266.686 141.951,266.778 142.317 C 266.954 143.021,268.402 144.769,268.808 144.769 C 268.939 144.769,268.648 144.304,268.161 143.734 C 267.673 143.165,267.050 142.231,266.776 141.658 C 266.249 140.559,265.842 140.254,266.072 141.131 M215.504 142.950 C 215.653 143.379,215.872 143.730,215.990 143.730 C 216.108 143.730,216.029 143.379,215.815 142.950 C 215.602 142.521,215.383 142.170,215.329 142.170 C 215.276 142.170,215.354 142.521,215.504 142.950 M282.549 142.862 C 282.380 143.233,282.305 143.600,282.381 143.677 C 282.458 143.753,282.521 143.688,282.521 143.532 C 282.521 143.375,282.697 143.071,282.913 142.855 C 283.128 142.640,283.204 142.401,283.081 142.325 C 282.958 142.249,282.719 142.490,282.549 142.862 M132.973 143.072 C 132.736 143.434,132.633 143.730,132.745 143.730 C 132.998 143.730,133.671 142.681,133.517 142.527 C 133.454 142.465,133.210 142.710,132.973 143.072 M293.125 142.569 C 293.031 142.664,293.007 142.880,293.072 143.050 C 293.275 143.580,292.197 146.537,291.330 147.828 C 290.529 149.020,289.279 150.404,289.279 150.098 C 289.279 150.015,289.027 150.182,288.720 150.468 C 288.412 150.755,288.058 150.926,287.933 150.849 C 287.809 150.772,287.739 150.858,287.778 151.041 C 287.817 151.224,287.703 151.393,287.524 151.418 C 287.346 151.442,287.112 151.490,287.005 151.525 C 286.897 151.560,286.722 151.575,286.615 151.558 C 286.507 151.541,286.420 151.630,286.420 151.757 C 286.420 151.883,286.157 152.072,285.835 152.176 C 285.130 152.406,285.257 152.351,283.821 153.050 C 283.177 153.364,282.867 153.558,283.130 153.482 C 283.394 153.406,283.891 153.273,284.235 153.187 C 284.579 153.101,284.860 152.919,284.860 152.783 C 284.860 152.647,284.973 152.605,285.110 152.691 C 285.936 153.201,290.214 150.030,291.607 147.874 C 292.825 145.989,294.076 141.618,293.125 142.569 M160.708 143.535 C 160.595 143.713,160.485 143.947,160.465 144.055 C 160.445 144.162,160.406 144.279,160.377 144.314 C 160.349 144.350,160.273 144.663,160.209 145.009 C 160.146 145.355,159.965 145.794,159.807 145.983 C 159.649 146.173,159.608 146.329,159.714 146.329 C 159.821 146.329,159.777 146.486,159.618 146.678 C 159.459 146.869,159.406 147.103,159.500 147.197 C 159.594 147.291,159.527 147.368,159.352 147.368 C 159.177 147.368,159.107 147.487,159.197 147.633 C 159.432 148.013,159.906 147.645,159.740 147.212 C 159.663 147.012,159.699 146.849,159.818 146.849 C 160.014 146.849,160.562 145.252,160.711 144.250 C 160.742 144.035,160.860 143.713,160.971 143.535 C 161.083 143.356,161.116 143.210,161.044 143.210 C 160.973 143.210,160.822 143.356,160.708 143.535 M230.054 143.559 C 229.894 143.751,229.841 143.984,229.935 144.078 C 230.029 144.173,229.963 144.250,229.788 144.250 C 229.612 144.250,229.525 144.339,229.593 144.449 C 229.660 144.559,229.502 145.113,229.240 145.679 C 228.978 146.245,228.819 146.799,228.887 146.909 C 228.955 147.019,228.880 147.109,228.720 147.109 C 228.560 147.109,228.489 147.205,228.561 147.322 C 228.634 147.440,228.525 147.861,228.318 148.259 C 228.112 148.657,228.002 149.077,228.073 149.193 C 228.145 149.308,228.080 149.444,227.930 149.494 C 227.780 149.544,227.638 149.847,227.613 150.166 C 227.589 150.486,227.465 150.747,227.337 150.747 C 227.209 150.747,227.171 150.919,227.251 151.129 C 227.332 151.339,227.284 151.581,227.145 151.667 C 227.006 151.752,226.973 151.953,227.071 152.113 C 227.170 152.272,227.524 151.671,227.859 150.776 C 228.193 149.882,228.400 149.041,228.318 148.909 C 228.236 148.776,228.283 148.668,228.422 148.668 C 228.560 148.668,229.085 147.440,229.588 145.939 C 230.520 143.154,230.561 142.948,230.054 143.559 M118.519 143.972 C 118.519 144.241,121.347 146.069,121.764 146.069 C 121.837 146.069,121.897 145.952,121.897 145.809 C 121.897 145.666,121.734 145.549,121.534 145.549 C 121.334 145.549,120.573 145.148,119.844 144.657 C 119.115 144.166,118.519 143.858,118.519 143.972 M131.925 144.486 C 131.678 144.759,131.130 145.125,130.707 145.300 C 130.284 145.476,129.992 145.674,130.059 145.740 C 130.248 145.929,132.253 144.730,132.403 144.338 C 132.587 143.860,132.455 143.901,131.925 144.486 M143.470 144.707 C 143.470 144.864,143.305 145.157,143.104 145.358 C 142.896 145.566,142.825 145.866,142.939 146.052 C 143.076 146.273,143.237 146.104,143.437 145.532 C 143.599 145.066,143.673 144.626,143.601 144.554 C 143.529 144.482,143.470 144.551,143.470 144.707 M256.794 144.639 C 256.798 146.114,260.539 150.009,263.454 151.575 C 265.248 152.539,266.824 153.032,266.516 152.533 C 266.427 152.390,266.294 152.333,266.219 152.408 C 266.145 152.482,265.514 152.255,264.817 151.902 C 264.121 151.549,263.473 151.272,263.378 151.287 C 263.283 151.302,263.101 151.128,262.973 150.900 C 262.846 150.673,262.590 150.487,262.403 150.487 C 262.217 150.487,261.755 150.201,261.376 149.850 C 260.998 149.499,260.689 149.287,260.689 149.379 C 260.689 149.470,260.338 149.209,259.909 148.798 C 259.480 148.387,259.129 147.897,259.129 147.710 C 259.129 147.522,258.968 147.368,258.771 147.368 C 258.574 147.368,258.279 147.046,258.116 146.652 C 257.735 145.734,256.793 144.299,256.794 144.639 M269.266 144.893 C 269.266 145.106,271.083 146.022,271.184 145.859 C 271.246 145.758,270.840 145.480,270.282 145.242 C 269.723 145.003,269.266 144.846,269.266 144.893 M107.611 145.195 C 107.622 145.513,108.354 146.443,108.487 146.310 C 108.548 146.249,108.373 145.923,108.100 145.585 C 107.826 145.248,107.606 145.072,107.611 145.195 M216.523 145.679 C 216.485 146.134,217.378 148.408,217.595 148.408 C 217.899 148.408,217.851 147.948,217.526 147.747 C 217.373 147.653,217.311 147.412,217.388 147.212 C 217.465 147.012,217.424 146.849,217.297 146.849 C 217.171 146.849,216.950 146.527,216.806 146.134 C 216.663 145.741,216.535 145.536,216.523 145.679 M128.395 146.076 L 127.485 146.275 128.590 146.251 C 129.198 146.238,129.695 146.133,129.695 146.018 C 129.695 145.790,129.709 145.789,128.395 146.076 M109.190 147.664 C 110.178 148.912,112.797 151.040,113.108 150.848 C 113.225 150.776,113.320 150.819,113.320 150.944 C 113.320 151.158,115.157 152.307,115.500 152.307 C 115.588 152.307,115.660 152.183,115.660 152.031 C 115.660 151.880,115.543 151.828,115.400 151.917 C 115.257 152.005,115.140 151.954,115.140 151.802 C 115.140 151.651,114.964 151.527,114.750 151.527 C 114.535 151.527,114.126 151.293,113.840 151.007 C 113.554 150.721,113.163 150.487,112.970 150.487 C 112.778 150.487,112.350 150.253,112.021 149.968 C 111.691 149.682,111.303 149.448,111.158 149.448 C 111.013 149.448,110.972 149.370,111.066 149.276 C 111.161 149.182,110.994 148.977,110.696 148.821 C 110.398 148.665,109.960 148.187,109.723 147.758 C 109.275 146.948,108.926 146.599,108.555 146.593 C 108.436 146.590,108.721 147.072,109.190 147.664 M142.285 146.970 C 141.857 147.294,141.845 147.353,142.207 147.360 C 142.442 147.365,142.702 147.193,142.784 146.979 C 142.970 146.494,142.915 146.493,142.285 146.970 M190.238 147.316 C 190.353 147.716,190.703 148.505,191.015 149.070 C 191.632 150.185,191.613 150.030,190.876 147.953 C 190.373 146.538,189.871 146.036,190.238 147.316 M141.959 147.806 C 141.771 147.881,141.504 148.239,141.366 148.601 C 141.229 148.964,141.042 149.186,140.952 149.095 C 140.861 149.005,140.650 149.193,140.483 149.514 C 140.315 149.835,140.042 150.068,139.875 150.032 C 139.708 149.997,139.571 150.091,139.571 150.243 C 139.571 150.394,139.454 150.446,139.311 150.357 C 139.168 150.269,139.051 150.365,139.051 150.570 C 139.051 150.776,138.700 151.089,138.272 151.267 C 137.843 151.445,137.492 151.699,137.492 151.833 C 137.492 152.469,140.909 149.815,141.923 148.391 C 142.221 147.971,142.428 147.638,142.383 147.649 C 142.337 147.660,142.146 147.731,141.959 147.806 M179.877 147.953 C 179.888 148.132,180.064 148.687,180.269 149.188 C 180.618 150.041,180.632 150.049,180.492 149.318 C 180.410 148.889,180.326 148.333,180.304 148.083 C 180.261 147.572,179.846 147.446,179.877 147.953 M148.041 149.150 C 147.694 149.712,147.402 150.747,147.591 150.747 C 147.707 150.747,147.927 150.338,148.080 149.838 C 148.348 148.964,148.332 148.680,148.041 149.150 M158.677 149.513 C 158.573 149.834,158.498 150.177,158.511 150.275 C 158.523 150.372,158.360 150.866,158.149 151.371 C 157.938 151.876,157.773 152.498,157.784 152.753 C 157.794 153.008,158.026 152.588,158.299 151.819 C 158.572 151.051,158.732 150.320,158.654 150.195 C 158.577 150.070,158.624 149.968,158.759 149.968 C 158.893 149.968,159.065 149.734,159.140 149.448 C 159.327 148.731,158.910 148.789,158.677 149.513 M217.927 149.838 C 218.033 150.123,218.352 151.030,218.635 151.852 C 218.919 152.674,219.260 153.346,219.394 153.346 C 219.527 153.346,219.450 152.985,219.221 152.543 C 218.993 152.101,218.869 151.575,218.946 151.374 C 219.024 151.172,218.974 151.007,218.835 151.007 C 218.697 151.007,218.580 150.861,218.575 150.682 C 218.571 150.504,218.380 150.123,218.150 149.838 L 217.734 149.318 217.927 149.838 M191.833 151.040 C 191.806 151.607,192.512 153.266,192.876 153.491 C 193.200 153.691,192.928 152.538,192.597 152.307 C 192.494 152.235,192.285 151.826,192.132 151.397 C 191.979 150.968,191.845 150.808,191.833 151.040 M136.524 152.079 C 136.375 152.228,135.508 152.635,134.598 152.982 C 133.561 153.379,133.283 153.552,133.853 153.446 C 135.148 153.206,137.397 152.180,137.070 151.978 C 136.919 151.884,136.673 151.930,136.524 152.079 M146.778 152.242 C 146.707 152.492,146.563 152.901,146.460 153.151 C 146.357 153.402,146.383 153.606,146.517 153.606 C 146.652 153.606,146.887 153.197,147.041 152.697 C 147.194 152.196,147.227 151.787,147.114 151.787 C 147.002 151.787,146.850 151.992,146.778 152.242 M117.352 152.822 C 117.262 152.968,117.283 153.088,117.399 153.090 C 117.514 153.092,117.901 153.168,118.259 153.258 C 118.638 153.354,118.818 153.326,118.692 153.190 C 118.573 153.061,118.397 152.955,118.302 152.952 C 118.207 152.950,117.991 152.861,117.822 152.753 C 117.653 152.646,117.441 152.677,117.352 152.822 M226.746 152.786 C 226.848 152.951,226.807 153.086,226.656 153.086 C 226.505 153.086,226.381 153.203,226.381 153.346 C 226.381 153.744,226.826 153.655,226.991 153.225 C 227.072 153.015,227.008 152.763,226.849 152.665 C 226.674 152.557,226.634 152.605,226.746 152.786 M267.186 153.082 C 267.628 153.372,268.409 153.442,268.133 153.166 C 268.034 153.067,267.693 152.950,267.375 152.906 C 266.916 152.842,266.877 152.878,267.186 153.082 M281.339 153.631 C 280.906 153.801,280.934 153.832,281.531 153.848 C 281.916 153.858,282.291 153.769,282.364 153.650 C 282.532 153.379,282.008 153.369,281.339 153.631 M121.378 153.910 C 121.378 154.029,121.689 154.126,122.071 154.126 C 122.452 154.126,122.683 154.046,122.585 153.947 C 122.324 153.686,121.378 153.656,121.378 153.910 M123.367 154.191 C 123.433 154.298,124.855 154.372,126.526 154.356 C 128.197 154.339,129.389 154.283,129.175 154.232 C 128.377 154.039,123.250 154.003,123.367 154.191 M274.919 154.316 C 275.526 154.371,276.520 154.371,277.128 154.316 C 277.736 154.262,277.238 154.217,276.023 154.217 C 274.808 154.217,274.311 154.262,274.919 154.316 " stroke="none" fill="#0424fc" fill-rule="evenodd"></path><path id="path2" d="" stroke="none" fill="#082cfc" fill-rule="evenodd"></path><path id="path3" d="" stroke="none" fill="#082cfc" fill-rule="evenodd"></path><path id="path4" d="" stroke="none" fill="#082cfc" fill-rule="evenodd"></path></g></svg>